<svg width="512" height="512" viewBox="0 0 512 512" xmlns="http://www.w3.org/2000/svg">
  <!-- apcore-cli nautilus logo - cartoon ocean mascot -->

  <defs>
    <!-- Shell radial gradient: warm coral center → deep orange edge -->
    <radialGradient id="shellGrad" cx="42%" cy="45%" r="52%">
      <stop offset="0%" stop-color="#FDBA74"/>
      <stop offset="55%" stop-color="#F97316"/>
      <stop offset="100%" stop-color="#C2410C"/>
    </radialGradient>

    <!-- Shell stripe gradient (lighter bands) -->
    <radialGradient id="stripeGrad" cx="42%" cy="45%" r="50%">
      <stop offset="0%" stop-color="#FED7AA" stop-opacity="0.7"/>
      <stop offset="100%" stop-color="#FB923C" stop-opacity="0.3"/>
    </radialGradient>

    <!-- Body gradient: cream → warm tan -->
    <radialGradient id="bodyGrad" cx="55%" cy="40%" r="55%">
      <stop offset="0%" stop-color="#FEF3C7"/>
      <stop offset="100%" stop-color="#F59E0B"/>
    </radialGradient>

    <!-- Tentacle gradients (top solid → bottom fade) -->
    <linearGradient id="tentGrad1" x1="0" y1="0" x2="0" y2="1">
      <stop offset="0%" stop-color="#FBBF24"/>
      <stop offset="100%" stop-color="#F59E0B" stop-opacity="0"/>
    </linearGradient>
    <linearGradient id="tentGrad2" x1="0" y1="0" x2="0" y2="1">
      <stop offset="0%" stop-color="#FDE68A"/>
      <stop offset="100%" stop-color="#FBBF24" stop-opacity="0"/>
    </linearGradient>

    <!-- Shell highlight glow -->
    <radialGradient id="glowGrad" cx="38%" cy="38%" r="40%">
      <stop offset="0%" stop-color="#FEF3C7" stop-opacity="0.5"/>
      <stop offset="100%" stop-color="#FEF3C7" stop-opacity="0"/>
    </radialGradient>

    <!-- Inner shell shadow -->
    <radialGradient id="innerGrad" cx="50%" cy="50%" r="50%">
      <stop offset="0%" stop-color="#7C2D12"/>
      <stop offset="60%" stop-color="#9A3412"/>
      <stop offset="100%" stop-color="#C2410C"/>
    </radialGradient>
  </defs>

  <!-- === TENTACLES (connected to head, 5 flowing tendrils) === -->
  <path d="M 345,310 C 360,350 370,400 362,450 Q 358,470 365,485"
        stroke="url(#tentGrad1)" stroke-width="9" fill="none" stroke-linecap="round"/>
  <path d="M 360,290 C 385,325 410,375 415,425 Q 418,450 408,468"
        stroke="url(#tentGrad2)" stroke-width="8" fill="none" stroke-linecap="round"/>
  <path d="M 370,268 C 400,295 435,335 445,385 Q 450,415 440,440"
        stroke="url(#tentGrad1)" stroke-width="7" fill="none" stroke-linecap="round"/>
  <path d="M 372,245 C 405,262 445,285 462,335 Q 470,365 462,392"
        stroke="url(#tentGrad2)" stroke-width="6" fill="none" stroke-linecap="round"/>
  <path d="M 368,225 C 398,232 438,240 460,278 Q 472,305 468,338"
        stroke="url(#tentGrad1)" stroke-width="5.5" fill="none" stroke-linecap="round"/>

  <!-- Shell drawn after body to layer correctly (see below) -->

  <!-- === BODY (round head peeking out, connected to tentacles) === -->
  <ellipse cx="345" cy="268" rx="48" ry="55" fill="url(#bodyGrad)"/>

  <!-- Clip body to only show the part outside the shell -->
  <path d="M 310,260
           C 310,140 260,65 180,65
           C 100,65 50,140 50,230
           C 50,320 100,380 180,380
           C 240,380 290,350 310,310
           Z"
        fill="url(#shellGrad)"/>

  <!-- Re-draw shell glow and stripes on top of body overlap -->
  <ellipse cx="170" cy="190" rx="100" ry="90" fill="url(#glowGrad)"/>
  <path d="M 290,280 C 285,170 245,95 180,95 C 115,95 80,165 80,235 C 80,305 115,355 180,355 C 225,355 262,335 280,300"
        stroke="#FED7AA" stroke-width="14" fill="none" opacity="0.55" stroke-linecap="round"/>
  <path d="M 265,270 C 262,190 235,130 185,130 C 135,130 112,185 112,235 C 112,285 135,325 185,325 C 220,325 248,308 258,280"
        stroke="#FED7AA" stroke-width="12" fill="none" opacity="0.5" stroke-linecap="round"/>
  <path d="M 242,262 C 240,210 222,168 188,168 C 155,168 140,200 140,238 C 140,275 158,300 188,300 C 212,300 232,285 238,268"
        stroke="#FED7AA" stroke-width="10" fill="none" opacity="0.45" stroke-linecap="round"/>
  <path d="M 220,255 C 219,225 210,202 192,202 C 174,202 166,220 166,240 C 166,260 175,275 192,275 C 206,275 216,265 218,255"
        stroke="#FED7AA" stroke-width="8" fill="none" opacity="0.4" stroke-linecap="round"/>
  <circle cx="194" cy="240" r="16" fill="url(#innerGrad)"/>
  <circle cx="194" cy="240" r="8" fill="#7C2D12"/>
  <ellipse cx="155" cy="155" rx="50" ry="30" fill="#FEF3C7" opacity="0.3" transform="rotate(-15 155 155)"/>

  <!-- Body highlight -->
  <ellipse cx="340" cy="250" rx="22" ry="28" fill="#FEF3C7" opacity="0.25"/>

  <!-- === EYE === -->
  <ellipse cx="348" cy="258" rx="19" ry="21" fill="white"/>
  <!-- Pupil -->
  <circle cx="353" cy="262" r="12" fill="#422006"/>
  <!-- Eye highlight -->
  <circle cx="357" cy="254" r="5.5" fill="white"/>
  <!-- Small secondary highlight -->
  <circle cx="349" cy="268" r="2.5" fill="white" opacity="0.7"/>

  <!-- === CHEEK BLUSH === -->
  <ellipse cx="352" cy="288" rx="13" ry="7" fill="#FDBA74" opacity="0.5"/>

  <!-- === SMILE === -->
  <path d="M 340,294 Q 352,306 365,296"
        stroke="#92400E" stroke-width="2.5" fill="none" stroke-linecap="round"/>
</svg>
